<svg width="50" height="28" viewBox="0 0 50 28" fill="none" xmlns="http://www.w3.org/2000/svg">
<path d="M0.658569 11.5781L2.64294 0.585938C2.65336 0.544271 2.6794 0.523438 2.72107 0.523438H5.04138C5.08305 0.523438 5.10909 0.544271 5.11951 0.585938L7.02576 11.5781C7.03097 11.6302 7.01013 11.6562 6.96326 11.6562H5.18982C5.13774 11.6562 5.10909 11.6302 5.10388 11.5781L4.93201 10.4062H2.75232L2.58044 11.5781C2.57524 11.6302 2.54919 11.6562 2.50232 11.6562H0.721069C0.679403 11.6562 0.658569 11.6302 0.658569 11.5781ZM3.79138 4.20312L3.07263 8.69531H4.61169L3.95544 4.20312L3.86169 3.60938L3.79138 4.20312Z" fill="white"/>
<path d="M10.9514 11.6562H9.01388C8.96701 11.6562 8.94096 11.6302 8.93576 11.5781L6.72482 0.585938C6.7144 0.544271 6.73524 0.523438 6.78732 0.523438H8.59982C8.64149 0.523438 8.66753 0.544271 8.67794 0.585938L9.99044 7.91406L11.2717 0.585938C11.2821 0.544271 11.3082 0.523438 11.3498 0.523438H13.1389C13.1962 0.523438 13.217 0.544271 13.2014 0.585938L11.0295 11.5781C11.0243 11.6302 10.9983 11.6562 10.9514 11.6562Z" fill="white"/>
<path d="M17.2598 11.8125C16.6921 11.8125 16.1687 11.6667 15.6895 11.375C15.2155 11.0833 14.8327 10.6953 14.5411 10.2109C14.2546 9.72135 14.1114 9.1849 14.1114 8.60156L14.127 3.53125C14.127 2.9375 14.2702 2.40365 14.5567 1.92969C14.8379 1.45052 15.2182 1.06771 15.6973 0.78125C16.1765 0.489583 16.6973 0.34375 17.2598 0.34375C17.8432 0.34375 18.3666 0.486979 18.8301 0.773438C19.2989 1.0599 19.6739 1.44531 19.9551 1.92969C20.2416 2.40885 20.3848 2.94271 20.3848 3.53125L20.4004 8.60156C20.4004 9.1849 20.2598 9.71875 19.9786 10.2031C19.6921 10.6927 19.3119 11.0833 18.8379 11.375C18.364 11.6667 17.8379 11.8125 17.2598 11.8125ZM17.2598 9.88281C17.5827 9.88281 17.864 9.7526 18.1036 9.49219C18.3432 9.22656 18.4629 8.92969 18.4629 8.60156L18.4473 3.53125C18.4473 3.17708 18.3353 2.8776 18.1114 2.63281C17.8874 2.38802 17.6036 2.26562 17.2598 2.26562C16.9317 2.26562 16.6504 2.38542 16.4161 2.625C16.1817 2.86458 16.0645 3.16667 16.0645 3.53125V8.60156C16.0645 8.95052 16.1817 9.2526 16.4161 9.50781C16.6504 9.75781 16.9317 9.88281 17.2598 9.88281Z" fill="white"/>
<path d="M24.7167 11.8125C24.1386 11.8125 23.6099 11.6667 23.1308 11.375C22.6568 11.0833 22.2792 10.6927 21.9979 10.2031C21.7219 9.70833 21.5839 9.15885 21.5839 8.55469L21.5995 3.5625C21.5995 2.96875 21.7349 2.43229 22.0058 1.95312C22.2766 1.46875 22.649 1.08073 23.1229 0.789062C23.6021 0.492188 24.1334 0.34375 24.7167 0.34375C25.3104 0.34375 25.8391 0.486979 26.3026 0.773438C26.7714 1.0599 27.1438 1.44792 27.4198 1.9375C27.7011 2.42188 27.8417 2.96354 27.8417 3.5625V4.29688C27.8417 4.33854 27.8209 4.35938 27.7792 4.35938H25.9823C25.9407 4.35938 25.9198 4.33854 25.9198 4.29688V3.5625C25.9198 3.20833 25.8052 2.90365 25.5761 2.64844C25.3469 2.39323 25.0604 2.26562 24.7167 2.26562C24.3365 2.26562 24.0448 2.39583 23.8417 2.65625C23.6386 2.91667 23.537 3.21875 23.537 3.5625V8.55469C23.537 8.94531 23.6516 9.26562 23.8808 9.51562C24.1099 9.76042 24.3886 9.88281 24.7167 9.88281C25.0604 9.88281 25.3469 9.7474 25.5761 9.47656C25.8052 9.20052 25.9198 8.89323 25.9198 8.55469V7.8125C25.9198 7.77083 25.9407 7.75 25.9823 7.75H27.7948C27.8365 7.75 27.8573 7.77083 27.8573 7.8125V8.55469C27.8573 9.15365 27.7167 9.70052 27.4354 10.1953C27.149 10.6849 26.7714 11.0781 26.3026 11.375C25.8339 11.6667 25.3052 11.8125 24.7167 11.8125Z" fill="white"/>
<path d="M28.6423 11.5781L30.6267 0.585938C30.6371 0.544271 30.6632 0.523438 30.7048 0.523438H33.0251C33.0668 0.523438 33.0928 0.544271 33.1033 0.585938L35.0095 11.5781C35.0147 11.6302 34.9939 11.6562 34.947 11.6562H33.1736C33.1215 11.6562 33.0928 11.6302 33.0876 11.5781L32.9158 10.4062H30.7361L30.5642 11.5781C30.559 11.6302 30.5329 11.6562 30.4861 11.6562H28.7048C28.6632 11.6562 28.6423 11.6302 28.6423 11.5781ZM31.7751 4.20312L31.0564 8.69531H32.5954L31.9392 4.20312L31.8454 3.60938L31.7751 4.20312Z" fill="white"/>
<path d="M39.1148 11.6406L36.2476 11.6562C36.1955 11.6562 36.1695 11.6302 36.1695 11.5781L36.2008 0.585938C36.2008 0.544271 36.2216 0.523438 36.2633 0.523438L39.2554 0.507812C39.8492 0.492188 40.3857 0.627604 40.8648 0.914062C41.3492 1.20052 41.7346 1.58854 42.0211 2.07812C42.3127 2.5625 42.4586 3.09896 42.4586 3.6875V8.28125C42.4586 8.89583 42.3101 9.45833 42.0133 9.96875C41.7112 10.474 41.3101 10.8776 40.8101 11.1797C40.3101 11.4766 39.745 11.6302 39.1148 11.6406ZM39.2554 2.42188L38.1383 2.4375L38.1226 9.6875H39.1148C39.5107 9.6875 39.844 9.54948 40.1148 9.27344C40.3857 8.9974 40.5211 8.66667 40.5211 8.28125V3.67188C40.5211 3.33333 40.3961 3.03906 40.1461 2.78906C39.8961 2.53385 39.5992 2.41146 39.2554 2.42188Z" fill="white"/>
<path d="M46.8373 11.8125C46.2696 11.8125 45.7462 11.6667 45.267 11.375C44.793 11.0833 44.4102 10.6953 44.1186 10.2109C43.8321 9.72135 43.6889 9.1849 43.6889 8.60156L43.7045 3.53125C43.7045 2.9375 43.8477 2.40365 44.1342 1.92969C44.4154 1.45052 44.7957 1.06771 45.2748 0.78125C45.754 0.489583 46.2748 0.34375 46.8373 0.34375C47.4207 0.34375 47.9441 0.486979 48.4076 0.773438C48.8764 1.0599 49.2514 1.44531 49.5326 1.92969C49.8191 2.40885 49.9623 2.94271 49.9623 3.53125L49.9779 8.60156C49.9779 9.1849 49.8373 9.71875 49.5561 10.2031C49.2696 10.6927 48.8894 11.0833 48.4154 11.375C47.9415 11.6667 47.4154 11.8125 46.8373 11.8125ZM46.8373 9.88281C47.1602 9.88281 47.4415 9.7526 47.6811 9.49219C47.9207 9.22656 48.0404 8.92969 48.0404 8.60156L48.0248 3.53125C48.0248 3.17708 47.9128 2.8776 47.6889 2.63281C47.4649 2.38802 47.1811 2.26562 46.8373 2.26562C46.5092 2.26562 46.2279 2.38542 45.9936 2.625C45.7592 2.86458 45.642 3.16667 45.642 3.53125V8.60156C45.642 8.95052 45.7592 9.2526 45.9936 9.50781C46.2279 9.75781 46.5092 9.88281 46.8373 9.88281Z" fill="white"/>
<path d="M4.12732 27.6562H1.26013C1.21847 27.6562 1.19763 27.6302 1.19763 27.5781L1.22888 16.5859C1.22888 16.5443 1.24972 16.5234 1.29138 16.5234H4.36951C4.96847 16.5234 5.51274 16.6693 6.00232 16.9609C6.48149 17.2526 6.85909 17.6406 7.13513 18.125C7.41117 18.6042 7.54919 19.125 7.54919 19.6875C7.54919 20.1458 7.44503 20.5729 7.23669 20.9688C7.02836 21.3646 6.78097 21.6849 6.49451 21.9297C6.8018 22.237 7.04138 22.5938 7.21326 23C7.38513 23.4062 7.47107 23.8333 7.47107 24.2812C7.47107 24.901 7.32263 25.4661 7.02576 25.9766C6.72367 26.487 6.32003 26.8958 5.81482 27.2031C5.30961 27.5052 4.74711 27.6562 4.12732 27.6562ZM4.36951 18.4219H3.15076V20.9375H4.36951C4.7393 20.9375 5.03878 20.8073 5.26794 20.5469C5.49711 20.2812 5.61169 19.9948 5.61169 19.6875C5.61169 19.349 5.4893 19.0547 5.24451 18.8047C4.99972 18.5495 4.70805 18.4219 4.36951 18.4219ZM4.12732 22.875H3.15076L3.13513 25.7031H4.12732C4.51274 25.7031 4.84347 25.5625 5.11951 25.2812C5.39555 25 5.53357 24.6667 5.53357 24.2812C5.53357 23.8958 5.39555 23.5651 5.11951 23.2891C4.84347 23.013 4.51274 22.875 4.12732 22.875Z" fill="white"/>
<path d="M8.24044 27.5781L10.2248 16.5859C10.2352 16.5443 10.2613 16.5234 10.3029 16.5234H12.6233C12.6649 16.5234 12.691 16.5443 12.7014 16.5859L14.6076 27.5781C14.6128 27.6302 14.592 27.6562 14.5451 27.6562H12.7717C12.7196 27.6562 12.691 27.6302 12.6858 27.5781L12.5139 26.4062H10.3342L10.1623 27.5781C10.1571 27.6302 10.1311 27.6562 10.0842 27.6562H8.30294C8.26128 27.6562 8.24044 27.6302 8.24044 27.5781ZM11.3733 20.2031L10.6545 24.6953H12.1936L11.5373 20.2031L11.4436 19.6094L11.3733 20.2031Z" fill="white"/>
<path d="M17.6426 27.6562H15.8301C15.7885 27.6562 15.7676 27.6302 15.7676 27.5781L15.7989 16.5859C15.7989 16.5443 15.8197 16.5234 15.8614 16.5234H19.0958C19.6739 16.5234 20.2051 16.6641 20.6895 16.9453C21.1739 17.2266 21.5593 17.6042 21.8458 18.0781C22.1374 18.5521 22.2833 19.0885 22.2833 19.6875C22.2833 20.0781 22.2234 20.4323 22.1036 20.75C21.9838 21.0677 21.8432 21.3359 21.6817 21.5547C21.5254 21.7734 21.3822 21.9349 21.252 22.0391C21.8301 22.6797 22.1192 23.4323 22.1192 24.2969L22.1348 27.5781C22.1348 27.6302 22.1088 27.6562 22.0567 27.6562H20.2442C20.2025 27.6562 20.1817 27.6406 20.1817 27.6094V24.2969C20.1817 23.9115 20.0463 23.5781 19.7754 23.2969C19.5046 23.0156 19.1713 22.875 18.7754 22.875H17.7208L17.7051 27.5781C17.7051 27.6302 17.6843 27.6562 17.6426 27.6562ZM19.0958 18.4375H17.7208V20.9531H19.0958C19.4239 20.9531 19.7155 20.8307 19.9708 20.5859C20.2312 20.3411 20.3614 20.0417 20.3614 19.6875C20.3614 19.349 20.2364 19.0573 19.9864 18.8125C19.7364 18.5625 19.4395 18.4375 19.0958 18.4375Z" fill="white"/>
<path d="M26.5761 27.6562H23.7089C23.6672 27.6562 23.6464 27.6302 23.6464 27.5781L23.6776 16.5859C23.6776 16.5443 23.6985 16.5234 23.7401 16.5234H26.8183C27.4172 16.5234 27.9615 16.6693 28.4511 16.9609C28.9302 17.2526 29.3078 17.6406 29.5839 18.125C29.8599 18.6042 29.9979 19.125 29.9979 19.6875C29.9979 20.1458 29.8938 20.5729 29.6854 20.9688C29.4771 21.3646 29.2297 21.6849 28.9433 21.9297C29.2505 22.237 29.4901 22.5938 29.662 23C29.8339 23.4062 29.9198 23.8333 29.9198 24.2812C29.9198 24.901 29.7714 25.4661 29.4745 25.9766C29.1724 26.487 28.7688 26.8958 28.2636 27.2031C27.7584 27.5052 27.1959 27.6562 26.5761 27.6562ZM26.8183 18.4219H25.5995V20.9375H26.8183C27.188 20.9375 27.4875 20.8073 27.7167 20.5469C27.9459 20.2812 28.0604 19.9948 28.0604 19.6875C28.0604 19.349 27.938 19.0547 27.6933 18.8047C27.4485 18.5495 27.1568 18.4219 26.8183 18.4219ZM26.5761 22.875H25.5995L25.5839 25.7031H26.5761C26.9615 25.7031 27.2922 25.5625 27.5683 25.2812C27.8443 25 27.9823 24.6667 27.9823 24.2812C27.9823 23.8958 27.8443 23.5651 27.5683 23.2891C27.2922 23.013 26.9615 22.875 26.5761 22.875Z" fill="white"/>
<path d="M36.4626 27.6562H31.2908C31.2491 27.6562 31.2283 27.6302 31.2283 27.5781L31.2439 16.5859C31.2439 16.5443 31.2647 16.5234 31.3064 16.5234H36.447C36.4887 16.5234 36.5095 16.5495 36.5095 16.6016V18.3906C36.5095 18.4323 36.4887 18.4531 36.447 18.4531H33.1658V20.9531H36.447C36.4887 20.9531 36.5095 20.974 36.5095 21.0156L36.5251 22.8281C36.5251 22.8698 36.5043 22.8906 36.4626 22.8906H33.1658V25.6875H36.4626C36.5043 25.6875 36.5251 25.7135 36.5251 25.7656V27.5938C36.5251 27.6354 36.5043 27.6562 36.4626 27.6562Z" fill="white"/>
<path d="M39.982 27.6562H38.1695C38.1278 27.6562 38.107 27.6302 38.107 27.5781L38.1383 16.5859C38.1383 16.5443 38.1591 16.5234 38.2008 16.5234H41.4351C42.0133 16.5234 42.5445 16.6641 43.0289 16.9453C43.5133 17.2266 43.8987 17.6042 44.1851 18.0781C44.4768 18.5521 44.6226 19.0885 44.6226 19.6875C44.6226 20.0781 44.5627 20.4323 44.4429 20.75C44.3232 21.0677 44.1825 21.3359 44.0211 21.5547C43.8648 21.7734 43.7216 21.9349 43.5914 22.0391C44.1695 22.6797 44.4586 23.4323 44.4586 24.2969L44.4742 27.5781C44.4742 27.6302 44.4482 27.6562 44.3961 27.6562H42.5836C42.5419 27.6562 42.5211 27.6406 42.5211 27.6094V24.2969C42.5211 23.9115 42.3857 23.5781 42.1148 23.2969C41.844 23.0156 41.5107 22.875 41.1148 22.875H40.0601L40.0445 27.5781C40.0445 27.6302 40.0237 27.6562 39.982 27.6562ZM41.4351 18.4375H40.0601V20.9531H41.4351C41.7633 20.9531 42.0549 20.8307 42.3101 20.5859C42.5705 20.3411 42.7008 20.0417 42.7008 19.6875C42.7008 19.349 42.5758 19.0573 42.3258 18.8125C42.0758 18.5625 41.7789 18.4375 41.4351 18.4375Z" fill="white"/>
</svg>
