<svg width="50" height="28" fill="none" xmlns="http://www.w3.org/2000/svg"><path d="M.659 11.578L2.643.586c.01-.042.036-.063.078-.063h2.32c.042 0 .068.021.079.063l1.906 10.992c.005.052-.016.078-.063.078H5.19c-.052 0-.08-.026-.086-.078l-.172-1.172h-2.18l-.172 1.172c-.005.052-.03.078-.078.078H.722c-.043 0-.063-.026-.063-.078zM3.79 4.203l-.718 4.492h1.539l-.657-4.492-.093-.594-.07.594zm7.161 7.453H9.014c-.047 0-.073-.026-.078-.078L6.725.586c-.01-.042.01-.063.062-.063H8.6c.041 0 .068.021.078.063L9.99 7.914 11.272.586c.01-.042.036-.063.078-.063h1.789c.057 0 .078.021.062.063L11.03 11.578c-.006.052-.032.078-.079.078zm6.309.157a2.964 2.964 0 01-1.57-.438 3.41 3.41 0 01-1.149-1.164 3.129 3.129 0 01-.43-1.61l.016-5.07c0-.594.143-1.127.43-1.601.28-.48.661-.862 1.14-1.149.48-.291 1-.437 1.563-.437a2.92 2.92 0 011.57.43c.469.286.844.671 1.125 1.156.287.479.43 1.013.43 1.601l.015 5.07c0 .584-.14 1.118-.421 1.602-.287.49-.667.88-1.141 1.172a2.95 2.95 0 01-1.578.438zm0-1.93c.323 0 .604-.13.844-.39.24-.266.359-.563.359-.891l-.016-5.07c0-.355-.112-.654-.336-.9a1.104 1.104 0 00-.851-.366c-.328 0-.61.12-.844.359-.234.24-.352.542-.352.906v5.07c0 .35.118.652.352.907.234.25.516.375.844.375zm7.457 1.93a2.991 2.991 0 01-1.586-.438 3.26 3.26 0 01-1.133-1.172 3.326 3.326 0 01-.414-1.648l.015-4.992c0-.594.136-1.13.407-1.61A3.15 3.15 0 0123.123.789a2.966 2.966 0 011.594-.445c.593 0 1.122.143 1.586.43.468.286.84.674 1.117 1.163.281.485.422 1.027.422 1.625v.735c0 .042-.021.062-.063.062h-1.797c-.041 0-.062-.02-.062-.062v-.734c0-.355-.115-.66-.344-.915a1.107 1.107 0 00-.86-.382c-.38 0-.671.13-.874.39-.203.26-.305.563-.305.906v4.993c0 .39.115.71.344.96.229.245.508.368.836.368.343 0 .63-.136.86-.406.228-.276.343-.584.343-.922v-.742c0-.042.02-.063.062-.063h1.813c.041 0 .062.02.062.063v.742a3.25 3.25 0 01-.422 1.64c-.286.49-.664.883-1.132 1.18a2.94 2.94 0 01-1.586.438zm3.925-.235L30.627.586c.01-.042.036-.063.078-.063h2.32c.042 0 .068.021.078.063l1.907 10.992c.005.052-.016.078-.063.078h-1.773c-.053 0-.081-.026-.086-.078l-.172-1.172h-2.18l-.172 1.172c-.005.052-.031.078-.078.078h-1.781c-.042 0-.063-.026-.063-.078zm3.133-7.375l-.719 4.492h1.54l-.657-4.492-.094-.594-.07.594zm7.34 7.437l-2.867.016c-.052 0-.078-.026-.078-.078L36.2.586c0-.042.022-.063.063-.063l2.992-.015a2.92 2.92 0 011.61.406c.484.287.87.675 1.156 1.164a3.06 3.06 0 01.438 1.61V8.28c0 .615-.149 1.177-.446 1.688a3.479 3.479 0 01-1.203 1.21c-.5.298-1.065.451-1.695.462zm.14-9.218l-1.117.015-.015 7.25h.992c.396 0 .729-.138 1-.414.27-.276.406-.606.406-.992v-4.61c0-.338-.125-.632-.375-.882a1.152 1.152 0 00-.89-.367zm7.582 9.391a2.964 2.964 0 01-1.57-.438 3.41 3.41 0 01-1.148-1.164 3.129 3.129 0 01-.43-1.61l.016-5.07c0-.594.143-1.127.43-1.601.28-.48.66-.862 1.14-1.149.479-.291 1-.437 1.562-.437.584 0 1.107.143 1.57.43.47.286.844.671 1.126 1.156.286.479.43 1.013.43 1.601l.015 5.07c0 .584-.14 1.118-.422 1.602-.286.49-.667.88-1.14 1.172a2.95 2.95 0 01-1.579.438zm0-1.93c.323 0 .604-.13.844-.39.24-.266.36-.563.36-.891l-.016-5.07c0-.355-.112-.654-.336-.9a1.104 1.104 0 00-.852-.366c-.328 0-.61.12-.843.359-.235.24-.352.542-.352.906v5.07c0 .35.117.652.352.907.234.25.515.375.843.375zM4.127 27.656H1.26c-.042 0-.062-.026-.062-.078l.03-10.992c0-.042.022-.063.063-.063H4.37a3.13 3.13 0 011.632.438c.48.292.857.68 1.133 1.164.276.48.414 1 .414 1.563 0 .458-.104.885-.312 1.28a3.21 3.21 0 01-.742.962 3.338 3.338 0 01.976 2.351c0 .62-.148 1.185-.445 1.696-.302.51-.706.919-1.211 1.226a3.225 3.225 0 01-1.688.453zm.243-9.234H3.15v2.515h1.22c.37 0 .669-.13.898-.39.23-.266.344-.552.344-.86a1.22 1.22 0 00-.367-.882 1.171 1.171 0 00-.875-.383zm-.243 4.453h-.976l-.016 2.828h.992c.386 0 .716-.14.993-.422a1.38 1.38 0 00.414-1c0-.385-.138-.716-.414-.992a1.353 1.353 0 00-.993-.414zm4.113 4.703l1.985-10.992c.01-.042.036-.063.078-.063h2.32c.042 0 .068.021.078.063l1.907 10.992c.005.052-.016.078-.063.078h-1.773c-.052 0-.081-.026-.086-.078l-.172-1.172h-2.18l-.172 1.172c-.005.052-.03.078-.078.078H8.303c-.042 0-.063-.026-.063-.078zm3.133-7.375l-.718 4.492h1.539l-.657-4.492-.093-.594-.07.594zm6.27 7.453H15.83c-.041 0-.062-.026-.062-.078l.03-10.992c0-.042.022-.063.063-.063h3.235c.578 0 1.11.141 1.593.422.485.282.87.66 1.157 1.133.291.474.437 1.01.437 1.61 0 .39-.06.744-.18 1.062a3.35 3.35 0 01-.421.805c-.157.218-.3.38-.43.484a3.26 3.26 0 01.867 2.258l.016 3.281c0 .052-.026.078-.078.078h-1.813c-.041 0-.062-.015-.062-.047v-3.312c0-.386-.136-.719-.407-1a1.333 1.333 0 00-1-.422h-1.054l-.016 4.703c0 .052-.02.078-.062.078zm1.453-9.218H17.72v2.515h1.375c.328 0 .62-.122.875-.367.26-.245.39-.544.39-.898 0-.339-.125-.63-.375-.875a1.217 1.217 0 00-.89-.375zm7.48 9.218H23.71c-.042 0-.063-.026-.063-.078l.032-10.992c0-.042.02-.063.062-.063h3.078a3.13 3.13 0 011.633.438c.48.292.857.68 1.133 1.164.276.48.414 1 .414 1.563 0 .458-.104.885-.313 1.28a3.211 3.211 0 01-.742.962 3.34 3.34 0 01.977 2.351 3.31 3.31 0 01-.446 1.696 3.5 3.5 0 01-1.21 1.226 3.225 3.225 0 01-1.688.453zm.242-9.234H25.6v2.515h1.22c.369 0 .669-.13.898-.39.229-.266.343-.552.343-.86a1.22 1.22 0 00-.367-.882 1.171 1.171 0 00-.875-.383zm-.242 4.453H25.6l-.015 2.828h.992c.386 0 .716-.14.992-.422a1.38 1.38 0 00.414-1c0-.385-.138-.716-.414-.992a1.353 1.353 0 00-.992-.414zm9.887 4.781H31.29c-.042 0-.063-.026-.063-.078l.016-10.992c0-.042.02-.063.062-.063h5.141c.042 0 .063.026.063.079v1.789c0 .041-.021.062-.063.062h-3.281v2.5h3.281c.042 0 .063.021.063.063l.015 1.812c0 .042-.02.063-.062.063h-3.297v2.797h3.297c.041 0 .062.026.062.078v1.828c0 .041-.02.062-.062.062zm3.519 0h-1.813c-.041 0-.062-.026-.062-.078l.031-10.992c0-.042.021-.063.063-.063h3.234c.578 0 1.11.141 1.594.422.484.282.87.66 1.156 1.133.292.474.438 1.01.438 1.61 0 .39-.06.744-.18 1.062-.12.318-.26.586-.422.805-.156.218-.3.38-.43.484.578.64.868 1.393.868 2.258l.015 3.281c0 .052-.026.078-.078.078h-1.812c-.042 0-.063-.015-.063-.047v-3.312a1.39 1.39 0 00-.406-1 1.333 1.333 0 00-1-.422H40.06l-.016 4.703c0 .052-.02.078-.062.078zm1.453-9.218H40.06v2.515h1.375c.328 0 .62-.122.875-.367.26-.245.39-.544.39-.898 0-.339-.124-.63-.374-.875a1.217 1.217 0 00-.89-.375z" fill="#fff"/></svg>